<svg width="32" height="32" viewBox="0 0 32 32" fill="none" xmlns="http://www.w3.org/2000/svg">
    <rect width="32" height="32" rx="16" fill="currentColor"/>
    <path d="M14.3464 23.1955C14.8648 24.1877 16.3844 25.0279 17.9978 25.0279C22.8022 25.0279 26.2614 20.6078 26.2614 15.1195C26.2614 9.85918 21.9665 5.92175 16.4425 5.92175C9.56871 5.92175 5.92178 10.534 5.92178 15.562C5.92178 17.8994 7.16424 20.8044 9.15307 21.7296C9.45698 21.8726 9.61787 21.81 9.68491 21.5195C9.73854 21.2961 10.0067 20.219 10.1274 19.7139C10.1721 19.553 10.1318 19.3787 10.0156 19.2581C9.35866 18.4581 8.83128 16.9921 8.83128 15.6245C8.83128 12.1117 11.4905 8.71058 16.0223 8.71058C19.9374 8.71058 22.6771 11.3743 22.6771 15.191C22.6771 19.4994 20.5006 22.4849 17.667 22.4849C16.1028 22.4849 14.9318 21.1933 15.3073 19.6067C15.7587 17.7117 16.6257 15.6692 16.6257 14.3016C16.6257 13.0771 15.9687 12.0581 14.6101 12.0581C13.0101 12.0581 11.7274 13.7117 11.7274 15.924C11.7274 17.3363 12.2056 18.2882 12.2056 18.2882C12.2056 18.2882 10.6279 24.9609 10.3374 26.2033C10.0067 27.6335 10.1587 29.6849 10.3017 30.9363C10.6279 31.0614 10.9497 31.1866 11.2849 31.2894C11.933 30.248 12.9788 28.4156 13.3497 26.9765C13.5464 26.2391 14.3464 23.1955 14.3464 23.1955Z" fill="white"/>
</svg>