<svg width="32" height="32" viewBox="0 0 32 32" fill="none" xmlns="http://www.w3.org/2000/svg">
    <rect width="32" height="32" rx="16" fill="currentColor"/>
    <path d="M23.8417 12.5416C23.8417 12.7166 23.8417 12.8916 23.8417 13.0416C23.8417 18.2166 19.8917 24.1916 12.6917 24.1916C10.4667 24.1916 8.41666 23.5416 6.66666 22.4416C6.96666 22.4666 7.29166 22.4916 7.59166 22.4916C9.41666 22.4916 11.1167 21.8666 12.4667 20.8166C10.7417 20.7916 9.29166 19.6416 8.81666 18.0916C9.06666 18.1416 9.29166 18.1666 9.56666 18.1666C9.91666 18.1666 10.2667 18.1166 10.5917 18.0166C8.79166 17.6666 7.44166 16.0916 7.44166 14.1916C7.44166 14.1666 7.44166 14.1666 7.44166 14.1416C7.96666 14.4416 8.56666 14.6166 9.21666 14.6416C8.16666 13.9416 7.46666 12.7416 7.46666 11.3666C7.46666 10.6416 7.66666 9.96663 7.99166 9.39163C9.91666 11.7666 12.8167 13.3166 16.0667 13.4916C15.9917 13.2166 15.9667 12.8916 15.9667 12.5916C15.9667 10.4166 17.7167 8.66663 19.8917 8.66663C21.0167 8.66663 22.0417 9.14163 22.7417 9.89163C23.6417 9.71663 24.4667 9.39163 25.2417 8.94163C24.9417 9.86663 24.3167 10.6166 23.5167 11.1166C24.3167 11.0166 25.0667 10.8166 25.7667 10.4916C25.2667 11.2916 24.6167 11.9916 23.8417 12.5416Z" fill="white"/>
</svg>